<?xml version="1.0" encoding="UTF-8"?>
<svg id="Layer_1" xmlns="http://www.w3.org/2000/svg" viewBox="0 0 750 750">
    <defs>
        <style>.cls-1{fill:#fff;}.cls-2{fill:#d11947;}</style>
    </defs>
    <rect class="cls-1" width="750" height="750" rx="120" ry="120"/>
    <path class="cls-2"
          d="m389.53,436.48c-.33.89-1.13,1.53-2.07,1.64-26.05.59-50.63,12.17-67.67,31.87,0,0-2.05,1.99-7.22-2.08-2.22-1.26-3.27-3.91-2.5-6.35,7.05-17.75,25.21-29.45,53.94-34.76l.84-.12c5.88-.81,19.56-2.7,24.22,6.5.56,1.01.73,2.18.47,3.3m82.15,87.97l-.17-.22c8.53-13.23,18.3-25.62,29.17-37,.36-.16.61-.27,1.01-.45,9.17-.15,18.12-2.84,25.86-7.76,4.4-3.66,8.61-7.55,12.62-11.65,2.9-4.97,5.42-10.14,7.54-15.48h0s-.2.34-.2.34l.71-1.64.11-.44,1.15-3.56c-.03-1.07-.63-2.04-1.57-2.55-.76-.32-1.6-.41-2.42-.26l.07-.21c.6-1.14.98-2.38,1.12-3.66v-.26c-.14-1.1-.79-2.07-1.76-2.61-1.17-.51-2.49-.58-3.71-.21-.44-.61-1-1.13-1.63-1.53-.29-.21-1.95-.8-5.01,1.06-1.29.86-2.43,1.94-3.36,3.19l.23-1.88c-.28-1.04-1.05-1.87-2.06-2.23-1.75-.49-3.62-.13-5.06.97-2.09,1.92-3.87,4.15-5.28,6.61-1.87,1.53-3.47,3.36-4.75,5.41-2.93,1.25-6.16,1.6-9.29,1.01,2.46-1.29,4.71-2.94,6.67-4.91,2.63-2.81,4.24-6.42,4.59-10.26,0-.5-.04-1-.13-1.5-.21-1.28-1-2.39-2.13-3.03-2.97-1.48-6.51,1.52-7.19,2.14-.05.08-1.03,1.11-1.57,1.69-1.83.4-3.54,1.2-5.02,2.35-1.16.89-2.49,1.54-3.91,1.9-2.15.6-4.16,1.64-5.91,3.04l-.15.12.14-.09c-.37.26-3.62,2.42-4.63,3.11-3.67,1.94-6.98,4.49-9.81,7.52-5.25,5.22-11.83,11.7-41.31,21.46-.25-10.8-6.91-39.81-8.26-50.92-2.72-19.61-25.45-46.6-41.79-63.68,15.41,8.96,24.03,10.21,32.52-1.35,2.24-3.5,5.77.28,8.97-.34,4.66-2.43,4.06-3.73,4.06-7.11,1.37-3.62,5.03-1.83,7.75-2.27,6.86-1.14,2.78-8.34,5.47-11.96,30.18-1.8-3.85-29.57,16.47-41.06,10.02-4.97,18.4-12.73,24.1-22.35,4.87-6.56,5.88-1.43,9.52-6.83,6.58-23.66-4.78-52.85-19.4-72.92-74.9-96.36-160.42-51.93-185.36,7.75-10.31,15.16-7.13,37.21-7.7,55.35-1.94,6.31-5.72,6.13-11.16,2.41-.6,3.84.46,7.75,2.92,10.77,2.45,3.01,6.07,4.85,9.95,5.04.46,1.6,3.31,4.04,4.5,5.7-5.05.51-10.14-.38-14.72-2.57-.32,2.83.6,5.65,2.51,7.75,1,6.98,5.99,12.73,12.77,14.69,12.02,4.88,6.38,21.36,4.97,28.13-.44,1.5-.9,2.99-1.29,4.41-10.76,3.48-18.9,12.34-21.46,23.35-1.36,25.3-14.4,46.3-14.17,72.48-.12,1.8-.12,3.6,0,5.4,6.48,28.32-1.8,65.45-.43,94.64-89.82,12.85-176.44,42.42-255.36,87.18,119.44-46.85,246.71-70.5,375.01-69.68,128.29-.82,255.56,22.82,374.99,69.68-85.75-48.51-180.42-79.21-278.32-90.24"/>
</svg>